####
#
#	OBJ File Generated by LightWave3D
#	LightWave3D OBJ Export v2.3
#
####
o fern.obj
mtllib fern.mtl
g default
v -0.496413 0.0155267 -0.0265451
v 0.403945 -0.000308029 -0.041117
v 0.412524 0.40509 -0.079351
v 0.421797 0.776565 -0.192569
v 0.430463 1.06969 -0.410286
v 0.438414 1.22654 -0.731085
v 0.446813 1.19329 -1.11465
v 0.457549 0.94769 -1.48739
v 0.472181 0.521023 -1.76489
v -0.428472 0.49401 -1.77598
v -0.443301 0.930563 -1.50005
v -0.454142 1.18636 -1.12619
v -0.462541 1.22861 -0.738985
v -0.4704 1.07853 -0.41282
v -0.478911 0.789639 -0.189015
v -0.488005 0.42024 -0.0698871
v -0.373246 -0.238233 0.425825
v 0.131223 -0.238233 -0.323345
v 0.139062 0.226209 -0.318049
v 0.0497245 0.66534 -0.378409
v -0.125238 1.02238 -0.496623
v -0.363206 1.25118 -0.657405
v -0.633412 1.32215 -0.839969
v -0.900922 1.22611 -1.02071
v -1.13115 0.975489 -1.17627
v -1.63562 0.975489 -0.427095
v -1.40539 1.22611 -0.271542
v -1.13788 1.32215 -0.090799
v -0.867675 1.25118 0.0917652
v -0.629707 1.02238 0.252548
v -0.454744 0.66534 0.370761
v -0.365407 0.226209 0.431122
v -0.15719 -0.21568 -0.383779
v 0.503381 -0.21568 0.377405
v 0.464715 0.312221 0.411074
v 0.565339 0.810825 0.323455
v 0.780984 1.15988 0.13568
v 1.05964 1.2752 -0.106963
v 1.33411 1.12898 -0.345955
v 1.53818 0.756473 -0.523657
v 1.62265 0.247528 -0.59721
v 0.962085 0.247528 -1.35839
v 0.877614 0.756473 -1.28484
v 0.673537 1.12898 -1.10714
v 0.399072 1.2752 -0.868147
v 0.120414 1.15988 -0.625504
v -0.095232 0.810825 -0.437729
v -0.195856 0.312221 -0.35011
v 0.230213 -0.235391 -0.447365
v -0.209399 -0.233904 0.329547
v -0.133844 0.168552 0.369805
v -0.0170065 0.534653 0.430869
v 0.172005 0.821183 0.531303
v 0.43205 0.978541 0.673042
v 0.724065 0.966789 0.837149
v 0.980412 0.779489 0.987251
v 1.13038 0.459771 1.08223
v 1.59159 0.459609 0.316898
v 1.42994 0.786732 0.215098
v 1.1628 0.976297 0.0590064
v 0.862988 0.986706 -0.109223
v 0.599228 0.82642 -0.252768
v 0.410731 0.537016 -0.352725
v 0.298225 0.168792 -0.411303
v 0.332936 -0.21568 -0.00601336
v -0.672312 -0.21568 0.127329
v -0.679804 0.312221 0.0769202
v -0.660308 0.810825 0.208104
v -0.618526 1.15988 0.489241
v -0.564535 1.2752 0.852529
v -0.511357 1.12898 1.21035
v -0.471816 0.756473 1.47641
v -0.45545 0.247528 1.58653
v 0.549799 0.247528 1.45319
v 0.533432 0.756473 1.34306
v 0.493892 1.12898 1.07701
v 0.440713 1.2752 0.719187
v 0.386723 1.15988 0.355899
v 0.344941 0.810825 0.0747613
v 0.325444 0.312221 -0.0564224
v 0.227732 -0.238233 0.442077
v -0.231955 -0.238233 -0.334769
v -0.223706 0.226209 -0.339415
v -0.317723 0.66534 -0.286462
v -0.501852 1.02238 -0.182756
v -0.752286 1.25118 -0.0417049
v -1.03665 1.32215 0.118455
v -1.31817 1.22611 0.277017
v -1.56046 0.975489 0.41348
v -1.10077 0.975489 1.19033
v -0.858485 1.22611 1.05386
v -0.576961 1.32215 0.895301
v -0.292599 1.25118 0.735141
v -0.042165 1.02238 0.59409
v 0.141964 0.66534 0.490384
v 0.235981 0.226209 0.437431
vt 0.0122816 0.0745499
vt 0.0122816 0.19605
vt 0.0122816 0.31755
vt 0.0122816 0.43905
vt 0.0122816 0.56055
vt 0.0122816 0.68205
vt 0.0122816 0.80355
vt 0.0122816 0.92505
vt 0.299922 0.0745499
vt 0.299922 0.19605
vt 0.299922 0.31755
vt 0.299922 0.43905
vt 0.299922 0.56055
vt 0.299922 0.68205
vt 0.299922 0.80355
vt 0.299922 0.92505
vt 0.320475 0.0745499
vt 0.320475 0.19605
vt 0.320475 0.31755
vt 0.320475 0.43905
vt 0.320475 0.56055
vt 0.320475 0.68205
vt 0.320475 0.80355
vt 0.320475 0.92505
vt 0.634003 0.0745499
vt 0.634003 0.19605
vt 0.634003 0.31755
vt 0.634003 0.43905
vt 0.634003 0.56055
vt 0.634003 0.68205
vt 0.634003 0.80355
vt 0.634003 0.92505
vt 0.674281 0.0651558
vt 0.674281 0.193946
vt 0.674281 0.322736
vt 0.674281 0.451526
vt 0.674281 0.580316
vt 0.674281 0.709106
vt 0.674281 0.837896
vt 0.674281 0.966686
vt 0.988528 0.0651558
vt 0.988528 0.193946
vt 0.988528 0.322736
vt 0.988528 0.451526
vt 0.988528 0.580316
vt 0.988528 0.709106
vt 0.988528 0.837896
vt 0.988528 0.966686
vn 0.0179565 0.106098 0.994194
vn 0.0166455 0.207417 0.978111
vn 0.0166455 0.207417 0.978111
vn 0.0179565 0.106098 0.994194
vn 0.0166455 0.207417 0.978111
vn 0.0137897 0.466367 0.884484
vn 0.0137897 0.466367 0.884484
vn 0.0166455 0.207417 0.978111
vn 0.0137897 0.466367 0.884484
vn 0.0101612 0.782735 0.622272
vn 0.0101612 0.782735 0.622272
vn 0.0137897 0.466367 0.884484
vn 0.0101612 0.782735 0.622272
vn 0.00568885 0.986988 0.160694
vn 0.00568885 0.986988 0.160694
vn 0.0101612 0.782735 0.622272
vn 0.00568885 0.986988 0.160694
vn 0.00212013 0.93788 -0.346954
vn 0.00212013 0.93788 -0.346954
vn 0.00568885 0.986988 0.160694
vn 0.00212013 0.93788 -0.346954
vn 0.00132975 0.694157 -0.719823
vn 0.00132975 0.694157 -0.719823
vn 0.00212013 0.93788 -0.346954
vn 0.00132975 0.694157 -0.719823
vn 0.00172392 0.534332 -0.845273
vn 0.00172392 0.534332 -0.845273
vn 0.00132975 0.694157 -0.719823
vn 0.829303 -0.0203643 0.558428
vn 0.824444 0.109975 0.555156
vn 0.824444 0.109975 0.555156
vn 0.829303 -0.0203643 0.558428
vn 0.824444 0.109975 0.555156
vn 0.768002 0.377796 0.517149
vn 0.768002 0.377796 0.517149
vn 0.824444 0.109975 0.555156
vn 0.768002 0.377796 0.517149
vn 0.625743 0.656432 0.421357
vn 0.625743 0.656432 0.421357
vn 0.768002 0.377796 0.517149
vn 0.625743 0.656432 0.421357
vn 0.355927 0.903257 0.239671
vn 0.355927 0.903257 0.239671
vn 0.625743 0.656432 0.421357
vn 0.355927 0.903257 0.239671
vn -0.0310341 0.9993 -0.0208974
vn -0.0310341 0.9993 -0.0208974
vn 0.355927 0.903257 0.239671
vn -0.0310341 0.9993 -0.0208974
vn -0.406036 0.871998 -0.273412
vn -0.406036 0.871998 -0.273412
vn -0.0310341 0.9993 -0.0208974
vn -0.406036 0.871998 -0.273412
vn -0.555572 0.742553 -0.374105
vn -0.555572 0.742553 -0.374105
vn -0.406036 0.871998 -0.273412
vn -0.751721 -0.096666 0.652358
vn -0.7527 0.0822336 0.653208
vn -0.7527 0.0822336 0.653208
vn -0.751721 -0.096666 0.652358
vn -0.7527 0.0822336 0.653208
vn -0.672025 0.45636 0.583196
vn -0.672025 0.45636 0.583196
vn -0.7527 0.0822336 0.653208
vn -0.672025 0.45636 0.583196
vn -0.422388 0.82899 0.366556
vn -0.422388 0.82899 0.366556
vn -0.672025 0.45636 0.583196
vn -0.422388 0.82899 0.366556
vn 0.0300213 0.99921 -0.026053
vn 0.0300213 0.99921 -0.026053
vn -0.422388 0.82899 0.366556
vn 0.0300213 0.99921 -0.026053
vn 0.464431 0.788582 -0.403042
vn 0.464431 0.788582 -0.403042
vn 0.0300213 0.99921 -0.026053
vn 0.464431 0.788582 -0.403042
vn 0.688866 0.409983 -0.597811
vn 0.688866 0.409983 -0.597811
vn 0.464431 0.788582 -0.403042
vn 0.688866 0.409983 -0.597811
vn 0.737607 0.214931 -0.64011
vn 0.737607 0.214931 -0.64011
vn 0.688866 0.409983 -0.597811
vn -0.854818 0.187026 -0.484053
vn -0.843294 0.256976 -0.472037
vn -0.843294 0.256976 -0.472037
vn -0.854818 0.187026 -0.484053
vn -0.843294 0.256976 -0.472037
vn -0.776268 0.464841 -0.42583
vn -0.776268 0.464841 -0.42583
vn -0.843294 0.256976 -0.472037
vn -0.776268 0.464841 -0.42583
vn -0.575822 0.756454 -0.310172
vn -0.575822 0.756454 -0.310172
vn -0.776268 0.464841 -0.42583
vn -0.575822 0.756454 -0.310172
vn -0.203824 0.973622 -0.102544
vn -0.203824 0.973622 -0.102544
vn -0.575822 0.756454 -0.310172
vn -0.203824 0.973622 -0.102544
vn 0.244489 0.958215 0.148489
vn 0.244489 0.958215 0.148489
vn -0.203824 0.973622 -0.102544
vn 0.244489 0.958215 0.148489
vn 0.616027 0.699523 0.362185
vn 0.616027 0.699523 0.362185
vn 0.244489 0.958215 0.148489
vn 0.616027 0.699523 0.362185
vn 0.7443 0.504119 0.438044
vn 0.7443 0.504119 0.438044
vn 0.616027 0.699523 0.362185
vn -0.130886 -0.0960799 -0.986731
vn -0.131054 0.0817651 -0.987998
vn -0.131054 0.0817651 -0.987998
vn -0.130886 -0.0960799 -0.986731
vn -0.131054 0.0817651 -0.987998
vn -0.117139 0.454341 -0.883093
vn -0.117139 0.454341 -0.883093
vn -0.131054 0.0817651 -0.987998
vn -0.117139 0.454341 -0.883093
vn -0.0737992 0.827657 -0.55636
vn -0.0737992 0.827657 -0.55636
vn -0.117139 0.454341 -0.883093
vn -0.0737992 0.827657 -0.55636
vn 0.00525167 0.999202 0.0395918
vn 0.00525167 0.999202 0.0395918
vn -0.0737992 0.827657 -0.55636
vn 0.00525167 0.999202 0.0395918
vn 0.0811211 0.787028 0.61156
vn 0.0811211 0.787028 0.61156
vn 0.00525167 0.999202 0.0395918
vn 0.0811211 0.787028 0.61156
vn 0.120048 0.408066 0.905025
vn 0.120048 0.408066 0.905025
vn 0.0811211 0.787028 0.61156
vn 0.120048 0.408066 0.905025
vn 0.128458 0.213675 0.968422
vn 0.128458 0.213675 0.968422
vn 0.120048 0.408066 0.905025
vn 0.860436 -0.0203762 -0.50915
vn 0.855389 0.110035 -0.506164
vn 0.855389 0.110035 -0.506164
vn 0.860436 -0.0203762 -0.50915
vn 0.855389 0.110035 -0.506164
vn 0.796771 0.377975 -0.471477
vn 0.796771 0.377975 -0.471477
vn 0.855389 0.110035 -0.506164
vn 0.796771 0.377975 -0.471477
vn 0.649084 0.656634 -0.384086
vn 0.649084 0.656634 -0.384086
vn 0.796771 0.377975 -0.471477
vn 0.649084 0.656634 -0.384086
vn 0.369133 0.903344 -0.218429
vn 0.369133 0.903344 -0.218429
vn 0.649084 0.656634 -0.384086
vn 0.369133 0.903344 -0.218429
vn -0.0321829 0.999301 0.0190438
vn -0.0321829 0.999301 0.0190438
vn 0.369133 0.903344 -0.218429
vn -0.0321829 0.999301 0.0190438
vn -0.421111 0.872107 0.249186
vn -0.421111 0.872107 0.249186
vn -0.0321829 0.999301 0.0190438
vn -0.421111 0.872107 0.249186
vn -0.576245 0.742746 0.340984
vn -0.576245 0.742746 0.340984
vn -0.421111 0.872107 0.249186
g Default
usemtl Default
s off
f 2/9/1 3/10/2 16/2/3 1/1/4
f 3/10/5 4/11/6 15/3/7 16/2/8
f 4/11/9 5/12/10 14/4/11 15/3/12
f 5/12/13 6/13/14 13/5/15 14/4/16
f 6/13/17 7/14/18 12/6/19 13/5/20
f 7/14/21 8/15/22 11/7/23 12/6/24
f 8/15/25 9/16/26 10/8/27 11/7/28
f 18/25/29 19/26/30 32/18/31 17/17/32
f 19/26/33 20/27/34 31/19/35 32/18/36
f 20/27/37 21/28/38 30/20/39 31/19/40
f 21/28/41 22/29/42 29/21/43 30/20/44
f 22/29/45 23/30/46 28/22/47 29/21/48
f 23/30/49 24/31/50 27/23/51 28/22/52
f 24/31/53 25/32/54 26/24/55 27/23/56
f 34/41/57 35/42/58 48/34/59 33/33/60
f 35/42/61 36/43/62 47/35/63 48/34/64
f 36/43/65 37/44/66 46/36/67 47/35/68
f 37/44/69 38/45/70 45/37/71 46/36/72
f 38/45/73 39/46/74 44/38/75 45/37/76
f 39/46/77 40/47/78 43/39/79 44/38/80
f 40/47/81 41/48/82 42/40/83 43/39/84
f 50/9/85 51/10/86 64/2/87 49/1/88
f 51/10/89 52/11/90 63/3/91 64/2/92
f 52/11/93 53/12/94 62/4/95 63/3/96
f 53/12/97 54/13/98 61/5/99 62/4/100
f 54/13/101 55/14/102 60/6/103 61/5/104
f 55/14/105 56/15/106 59/7/107 60/6/108
f 56/15/109 57/16/110 58/8/111 59/7/112
f 66/41/113 67/42/114 80/34/115 65/33/116
f 67/42/117 68/43/118 79/35/119 80/34/120
f 68/43/121 69/44/122 78/36/123 79/35/124
f 69/44/125 70/45/126 77/37/127 78/36/128
f 70/45/129 71/46/130 76/38/131 77/37/132
f 71/46/133 72/47/134 75/39/135 76/38/136
f 72/47/137 73/48/138 74/40/139 75/39/140
f 82/25/141 83/26/142 96/18/143 81/17/144
f 83/26/145 84/27/146 95/19/147 96/18/148
f 84/27/149 85/28/150 94/20/151 95/19/152
f 85/28/153 86/29/154 93/21/155 94/20/156
f 86/29/157 87/30/158 92/22/159 93/21/160
f 87/30/161 88/31/162 91/23/163 92/22/164
f 88/31/165 89/32/166 90/24/167 91/23/168
v -0.151247 0.545658 -0.396623
v -0.422792 0.717915 -0.396788
v -0.707476 0.785075 -0.397013
v -0.968494 0.738454 -0.397269
v -1.1721 0.584081 -0.397522
v -1.29197 0.341913 -0.397739
v -1.29145 0.342114 0.505446
v -1.17158 0.584282 0.505664
v -0.967979 0.738656 0.505917
v -0.706961 0.785276 0.506172
v -0.422276 0.718117 0.506397
v -0.150731 0.54586 0.506563
v 0.278082 0.545658 -0.339127
v 0.142453 0.717915 -0.574375
v 0.000305117 0.785075 -0.821032
v -0.129983 0.738454 -1.04721
v -0.231566 0.584081 -1.22366
v -0.291312 0.341913 -1.32758
v -1.07324 0.342114 -0.87554
v -1.01349 0.584282 -0.771622
v -0.911907 0.738656 -0.595169
v -0.781619 0.785276 -0.368993
v -0.639472 0.718117 -0.122336
v -0.503842 0.54586 0.112912
v 0.413444 0.545658 0.170589
v 0.605572 0.717915 -0.0213054
v 0.807033 0.785075 -0.222449
v 0.991782 0.738454 -0.406836
v 1.13593 0.584081 -0.550627
v 1.22084 0.341913 -0.635233
v 0.581831 0.342114 -1.27352
v 0.496918 0.584282 -1.18891
v 0.352768 0.738656 -1.04512
v 0.16802 0.785276 -0.860733
v -0.0334413 0.718117 -0.65959
v -0.22557 0.54586 -0.467696
v -0.235689 0.545658 0.335376
v -0.10006 0.717915 0.570624
v 0.0420879 0.785075 0.81728
v 0.172376 0.738454 1.04346
v 0.273959 0.584081 1.21991
v 0.333705 0.341913 1.32383
v 1.11563 0.342114 0.871789
v 1.05588 0.584282 0.767871
v 0.9543 0.738656 0.591417
v 0.824012 0.785276 0.365241
v 0.681865 0.718117 0.118585
v 0.546235 0.54586 -0.116663
v -0.371219 0.545658 -0.0446453
v -0.507134 0.717915 0.190437
v -0.649672 0.785075 0.436868
v -0.780402 0.738454 0.662789
v -0.882424 0.584081 0.83899
v -0.942546 0.341913 0.94269
v -0.160106 0.342114 1.39384
v -0.0999839 0.584282 1.29014
v 0.00203769 0.738656 1.11394
v 0.132768 0.785276 0.888015
v 0.275305 0.718117 0.641583
v 0.411221 0.54586 0.406501
vt 0.320475 0.31755
vt 0.320475 0.43905
vt 0.320475 0.56055
vt 0.320475 0.68205
vt 0.320475 0.80355
vt 0.320475 0.92505
vt 0.634003 0.31755
vt 0.634003 0.43905
vt 0.634003 0.56055
vt 0.634003 0.68205
vt 0.634003 0.80355
vt 0.634003 0.92505
vn 0.53567 0.844427 -0.000493699
vn 0.388025 0.921649 -0.000426647
vn 0.388025 0.921649 -0.000426647
vn 0.53567 0.844427 -0.000493699
vn 0.388025 0.921649 -0.000426647
vn 0.0274599 0.999623 -0.000238339
vn 0.0274599 0.999623 -0.000238339
vn 0.388025 0.921649 -0.000426647
vn 0.0274599 0.999623 -0.000238339
vn -0.401119 0.916026 2.47052e-05
vn -0.401119 0.916026 2.47052e-05
vn 0.0274599 0.999623 -0.000238339
vn -0.401119 0.916026 2.47052e-05
vn -0.770708 0.637189 0.000297646
vn -0.770708 0.637189 0.000297646
vn -0.401119 0.916026 2.47052e-05
vn -0.770708 0.637189 0.000297646
vn -0.89622 0.44361 0.000412385
vn -0.89622 0.44361 0.000412385
vn -0.770708 0.637189 0.000297646
vn 0.268263 0.844427 0.463657
vn 0.194382 0.921649 0.335826
vn 0.194382 0.921649 0.335826
vn 0.268263 0.844427 0.463657
vn 0.194382 0.921649 0.335826
vn 0.0139364 0.999623 0.0236618
vn 0.0139364 0.999623 0.0236618
vn 0.194382 0.921649 0.335826
vn 0.0139364 0.999623 0.0236618
vn -0.200581 0.916026 -0.347367
vn -0.200581 0.916026 -0.347367
vn 0.0139364 0.999623 0.0236618
vn -0.200581 0.916026 -0.347367
vn -0.385612 0.637189 -0.667304
vn -0.385612 0.637189 -0.667304
vn -0.200581 0.916026 -0.347367
vn -0.385612 0.637189 -0.667304
vn -0.448467 0.44361 -0.775943
vn -0.448467 0.44361 -0.775943
vn -0.385612 0.637189 -0.667304
vn -0.378427 0.844427 0.379125
vn -0.274073 0.921649 0.274677
vn -0.274073 0.921649 0.274677
vn -0.378427 0.844427 0.379125
vn -0.274073 0.921649 0.274677
vn -0.0192485 0.999623 0.0195856
vn -0.0192485 0.999623 0.0195856
vn -0.274073 0.921649 0.274677
vn -0.0192485 0.999623 0.0195856
vn 0.283616 0.916026 -0.283651
vn 0.283616 0.916026 -0.283651
vn -0.0192485 0.999623 0.0195856
vn 0.283616 0.916026 -0.283651
vn 0.544762 0.637189 -0.545183
vn 0.544762 0.637189 -0.545183
vn 0.283616 0.916026 -0.283651
vn 0.544762 0.637189 -0.545183
vn 0.633431 0.44361 -0.634015
vn 0.633431 0.44361 -0.634015
vn 0.544762 0.637189 -0.545183
vn -0.268263 0.844427 -0.463657
vn -0.194382 0.921649 -0.335826
vn -0.194382 0.921649 -0.335826
vn -0.268263 0.844427 -0.463657
vn -0.194382 0.921649 -0.335826
vn -0.0139364 0.999623 -0.0236618
vn -0.0139364 0.999623 -0.0236618
vn -0.194382 0.921649 -0.335826
vn -0.0139364 0.999623 -0.0236618
vn 0.200581 0.916026 0.347367
vn 0.200581 0.916026 0.347367
vn -0.0139364 0.999623 -0.0236618
vn 0.200581 0.916026 0.347367
vn 0.385612 0.637189 0.667304
vn 0.385612 0.637189 0.667304
vn 0.200581 0.916026 0.347367
vn 0.385612 0.637189 0.667304
vn 0.448467 0.44361 0.775943
vn 0.448467 0.44361 0.775943
vn 0.385612 0.637189 0.667304
vn 0.267408 0.844427 -0.464151
vn 0.193643 0.921649 -0.336253
vn 0.193643 0.921649 -0.336253
vn 0.267408 0.844427 -0.464151
vn 0.193643 0.921649 -0.336253
vn 0.0135235 0.999623 -0.0239001
vn 0.0135235 0.999623 -0.0239001
vn 0.193643 0.921649 -0.336253
vn 0.0135235 0.999623 -0.0239001
vn -0.200538 0.916026 0.347391
vn -0.200538 0.916026 0.347391
vn 0.0135235 0.999623 -0.0239001
vn -0.200538 0.916026 0.347391
vn -0.385096 0.637189 0.667601
vn -0.385096 0.637189 0.667601
vn -0.200538 0.916026 0.347391
vn -0.385096 0.637189 0.667601
vn -0.447753 0.44361 0.776355
vn -0.447753 0.44361 0.776355
vn -0.385096 0.637189 0.667601
usemtl Default
f 97/55/169 98/56/170 107/50/171 108/49/172
f 98/56/173 99/57/174 106/51/175 107/50/176
f 99/57/177 100/58/178 105/52/179 106/51/180
f 100/58/181 101/59/182 104/53/183 105/52/184
f 101/59/185 102/60/186 103/54/187 104/53/188
f 109/55/189 110/56/190 119/50/191 120/49/192
f 110/56/193 111/57/194 118/51/195 119/50/196
f 111/57/197 112/58/198 117/52/199 118/51/200
f 112/58/201 113/59/202 116/53/203 117/52/204
f 113/59/205 114/60/206 115/54/207 116/53/208
f 121/55/209 122/56/210 131/50/211 132/49/212
f 122/56/213 123/57/214 130/51/215 131/50/216
f 123/57/217 124/58/218 129/52/219 130/51/220
f 124/58/221 125/59/222 128/53/223 129/52/224
f 125/59/225 126/60/226 127/54/227 128/53/228
f 133/55/229 134/56/230 143/50/231 144/49/232
f 134/56/233 135/57/234 142/51/235 143/50/236
f 135/57/237 136/58/238 141/52/239 142/51/240
f 136/58/241 137/59/242 140/53/243 141/52/244
f 137/59/245 138/60/246 139/54/247 140/53/248
f 145/55/249 146/56/250 155/50/251 156/49/252
f 146/56/253 147/57/254 154/51/255 155/50/256
f 147/57/257 148/58/258 153/52/259 154/51/260
f 148/58/261 149/59/262 152/53/263 153/52/264
f 149/59/265 150/60/266 151/54/267 152/53/268
