####
#
#	OBJ File Generated by LightWave3D
#	LightWave3D OBJ Export v2.3
#
####
o undergrowth.obj
mtllib undergrowth.mtl
g default
v -1.41099 -0.0123611 1.53877
v -1.41099 1.56361 1.53877
v 0.0812745 1.56361 1.53877
v 0.0812745 -0.0123611 1.53877
v -1.02567 -0.0123611 0.384636
v -1.02567 1.56361 0.384636
v 0.466601 1.56361 0.384636
v 0.466601 -0.0123611 0.384636
v -2.63802 -0.0123611 -0.380092
v -2.63802 1.56361 -0.380092
v -1.14575 1.56361 -0.380092
v -1.14575 -0.0123611 -0.380092
v 1.24535 -0.0123611 1.07711
v 1.24535 1.56361 1.07711
v 2.73762 1.56361 1.07711
v 2.73762 -0.0123611 1.07711
v -2.56536 -0.00766148 -1.61585
v -2.56536 2.63164 -1.61585
v -1.08683 2.63164 -1.61585
v -1.08683 -0.00766148 -1.61585
v -0.83526 -0.00766148 -0.615609
v -0.83526 2.63164 -0.615609
v 1.25881 2.63164 -0.615609
v 1.25881 -0.00766148 -0.615609
v 0.973694 -0.00766148 0.730875
v 0.973694 2.63164 0.730875
v 3.56789 2.63164 0.730875
v 3.56789 -0.00766148 0.730875
v -3.18066 -0.0164275 0.0383973
v -3.18066 1.86731 0.0383973
v -1.68839 1.86731 0.0383973
v -1.68839 -0.0164275 0.0383973
v -1.79509 -0.0164275 -1.07726
v -1.79509 1.86731 -1.07726
v -0.302818 1.86731 -1.07726
v -0.302818 -0.0164275 -1.07726
v 0.975441 -0.0164275 -1.50044
v 0.975441 1.86731 -1.50044
v 2.46771 1.86731 -1.50044
v 2.46771 -0.0164275 -1.50044
v 1.78395 -0.0164275 0.0383973
v 1.78395 1.86731 0.0383973
v 3.27622 1.86731 0.0383973
v 3.27622 -0.0164275 0.0383973
v 0.000833565 -0.0123611 -1.32154
v 0.000833565 1.56361 -1.32154
v -1.50636 1.56361 -1.32154
v -1.50636 -0.0123611 -1.32154
v 2.21783 -0.0123611 0.334704
v 2.21783 1.56361 0.334704
v 0.710636 1.56361 0.334704
v 0.710636 -0.0123611 0.334704
v 2.85122 -0.0123611 -0.476602
v 2.85122 1.56361 -0.476602
v 1.34402 1.56361 -0.476602
v 1.34402 -0.0123611 -0.476602
v -1.07099 -0.0123611 0.829055
v -1.07099 1.56361 0.829055
v -2.57818 1.56361 0.829055
v -2.57818 -0.0123611 0.829055
v 2.77783 -0.00766148 -1.58385
v 2.77783 2.63164 -1.58385
v 1.28451 2.63164 -1.58385
v 1.28451 -0.00766148 -1.58385
v -0.959737 -0.00766148 0.279216
v -0.959737 2.63164 0.279216
v -3.07475 2.63164 0.279216
v -3.07475 -0.00766148 0.279216
v 0.245858 -0.00766148 -2.12948
v 0.245858 2.63164 -2.12948
v -2.37428 2.63164 -2.12948
v -2.37428 -0.00766148 -2.12948
v 1.74081 -0.0164275 1.49576
v 1.74081 1.86731 1.49576
v 0.233618 1.86731 1.49576
v 0.233618 -0.0164275 1.49576
v -1.12755 -0.0164275 1.75722
v -1.12755 1.86731 1.75722
v -2.63474 1.86731 1.75722
v -2.63474 -0.0164275 1.75722
v 1.63186 -0.0164275 2.08367
v 1.63186 1.86731 2.08367
v 0.124673 1.86731 2.08367
v 0.124673 -0.0164275 2.08367
v -1.61497 -0.0164275 -0.101635
v -1.61497 1.86731 -0.101635
v -3.12216 1.86731 -0.101635
v -3.12216 -0.0164275 -0.101635
v 0.861418 -0.0123611 2.23368
v 0.861418 1.56361 2.23368
v -0.645774 1.56361 2.23368
v -0.645774 -0.0123611 2.23368
v -0.811488 -0.0123611 1.6459
v -0.811488 1.56361 1.6459
v -2.31868 1.56361 1.6459
v -2.31868 -0.0123611 1.6459
v 1.53962 -0.0123611 0.877269
v 1.53962 1.56361 0.877269
v 0.0324312 1.56361 0.877269
v 0.0324312 -0.0123611 0.877269
v 3.34817 -0.0123611 1.69111
v 3.34817 1.56361 1.69111
v 1.84098 1.56361 1.69111
v 1.84098 -0.0123611 1.69111
v -3.46711 -0.0123611 0.515559
v -3.46711 1.56361 0.515559
v -1.95992 1.56361 0.515559
v -1.95992 -0.0123611 0.515559
v -2.15591 -0.0123611 1.10334
v -2.15591 1.56361 1.10334
v -0.64872 1.56361 1.10334
v -0.64872 -0.0123611 1.10334
v -1.07078 -0.0123611 -0.20786
v -1.07078 1.56361 -0.20786
v 0.436408 1.56361 -0.20786
v 0.436408 -0.0123611 -0.20786
v -0.302152 -0.0123611 -1.74512
v -0.302152 1.56361 -1.74512
v 1.20504 1.56361 -1.74512
v 1.20504 -0.0123611 -1.74512
v -2.02027 -0.0123611 -0.840851
v -2.02027 1.56361 -0.840851
v -0.513079 1.56361 -0.840851
v -0.513079 -0.0123611 -0.840851
v 2.35347 -0.0123611 -0.20786
v 2.35347 1.56361 -0.20786
v 0.846277 1.56361 -0.20786
v 0.846277 -0.0123611 -0.20786
v 1.58484 -0.0123611 -0.840851
v 1.58484 1.56361 -0.840851
v 0.0776448 1.56361 -0.840851
v 0.0776448 -0.0123611 -0.840851
v 2.26304 -0.0123611 -1.15735
v 2.26304 1.56361 -1.15735
v 0.75585 1.56361 -1.15735
v 0.75585 -0.0123611 -1.15735
v 1.99176 -0.0123611 -2.37812
v 1.99176 1.56361 -2.37812
v 0.484568 1.56361 -2.37812
v 0.484568 -0.0123611 -2.37812
v 0.725777 -0.0123611 0.6512
v 0.725777 1.56361 0.6512
v -0.781415 1.56361 0.6512
v -0.781415 -0.0123611 0.6512
v -1.76098 -0.0123611 -0.976492
v -1.76098 1.56361 -0.976492
v -3.26817 1.56361 -0.976492
v -3.26817 -0.0123611 -0.976492
v -2.70394 -0.0123611 1.90907
v -2.70394 1.56361 1.90907
v -1.0611 1.56361 1.90907
v -1.0611 -0.0123611 1.90907
v -0.284928 -0.00487508 0.242414
v -0.284928 2.16997 0.242414
v 1.20734 2.16997 0.242414
v 1.20734 -0.00487508 0.242414
vt 0 0.30189
vt 0 0.749091
vt 0.00595936 0.0193983
vt 0.00595936 0.288838
vt 0.00595936 0.762405
vt 0.00595936 1.00309
vt 0.207061 0.30189
vt 0.207061 0.749091
vt 0.233945 0.372578
vt 0.233945 0.749091
vt 0.272774 0.762405
vt 0.272774 1.00309
vt 0.276624 0.0193983
vt 0.276624 0.288838
vt 0.279408 0.762405
vt 0.279408 1.00309
vt 0.283836 0.0193983
vt 0.283836 0.359526
vt 0.490463 0.762405
vt 0.490463 1.00309
vt 0.515496 0.762405
vt 0.515496 1.00309
vt 0.517813 0.0193983
vt 0.517813 0.359526
vt 0.529171 0.0193983
vt 0.529171 0.359526
vt 0.582314 0.372578
vt 0.582314 0.749091
vt 0.603569 0.372578
vt 0.603569 0.749091
vt 0.713323 0.0193983
vt 0.713323 0.359526
vt 0.738356 0.0193983
vt 0.738356 0.359526
vt 0.745232 0.762405
vt 0.745232 1.00309
vt 0.770264 0.762405
vt 0.770264 1.00309
vt 0.997522 0.372578
vt 0.997522 0.749091
vt 1 0.0193983
vt 1 0.359526
vt 1 0.762405
vt 1 1.00309
vn 0 0 -1
vn 0 0 -1
vn 0 0 -1
vn 0 0 -1
vn 0 0 -1
vn 0 0 -1
vn 0 0 -1
vn 0 0 -1
vn 0 0 -1
vn 0 0 -1
vn 0 0 -1
vn 0 0 -1
vn 0 0 -1
vn 0 0 -1
vn 0 0 -1
vn 0 0 -1
vn 0 0 -1
vn 0 0 -1
vn 0 0 -1
vn 0 0 -1
vn 0 0 -1
vn 0 0 -1
vn 0 0 -1
vn 0 0 -1
vn 0 0 -1
vn 0 0 -1
vn 0 0 -1
vn 0 0 -1
vn 0 0 -1
vn 0 0 -1
vn 0 0 -1
vn 0 0 -1
vn 0 0 -1
vn 0 0 -1
vn 0 0 -1
vn 0 0 -1
vn 0 0 -1
vn 0 0 -1
vn 0 0 -1
vn 0 0 -1
vn 0 0 -1
vn 0 0 -1
vn 0 0 -1
vn 0 0 -1
vn 0 -0 -1
vn 0 -0 -1
vn 0 -0 -1
vn 0 -0 -1
vn 0 -0 -1
vn 0 -0 -1
vn 0 -0 -1
vn 0 -0 -1
vn 0 -0 -1
vn 0 -0 -1
vn 0 -0 -1
vn 0 -0 -1
vn 0 -0 -1
vn 0 -0 -1
vn 0 -0 -1
vn 0 -0 -1
vn 0 -0 -1
vn 0 -0 -1
vn 0 -0 -1
vn 0 -0 -1
vn 0 -0 -1
vn 0 -0 -1
vn 0 -0 -1
vn 0 -0 -1
vn 0 -0 -1
vn 0 -0 -1
vn 0 -0 -1
vn 0 -0 -1
vn 0 -0 -1
vn 0 -0 -1
vn 0 -0 -1
vn 0 -0 -1
vn 0 -0 -1
vn 0 -0 -1
vn 0 -0 -1
vn 0 -0 -1
vn 0 -0 -1
vn 0 -0 -1
vn 0 -0 -1
vn 0 -0 -1
vn 0 -0 -1
vn 0 -0 -1
vn 0 -0 -1
vn 0 -0 -1
vn 0 -0 -1
vn 0 -0 -1
vn 0 -0 -1
vn 0 -0 -1
vn 0 -0 -1
vn 0 -0 -1
vn 0 -0 -1
vn 0 -0 -1
vn 0 -0 -1
vn 0 -0 -1
vn 0 -0 -1
vn 0 -0 -1
vn 0 -0 -1
vn 0 -0 -1
vn 0 -0 -1
vn 0 -0 -1
vn 0 0 -1
vn 0 0 -1
vn 0 0 -1
vn 0 0 -1
vn 0 0 -1
vn 0 0 -1
vn 0 0 -1
vn 0 0 -1
vn 0 0 -1
vn 0 0 -1
vn 0 0 -1
vn 0 0 -1
vn 0 0 -1
vn 0 0 -1
vn 0 0 -1
vn 0 0 -1
vn 0 0 -1
vn 0 0 -1
vn 0 0 -1
vn 0 0 -1
vn 0 -0 -1
vn 0 -0 -1
vn 0 -0 -1
vn 0 -0 -1
vn 0 -0 -1
vn 0 -0 -1
vn 0 -0 -1
vn 0 -0 -1
vn 0 -0 -1
vn 0 -0 -1
vn 0 -0 -1
vn 0 -0 -1
vn 0 -0 -1
vn 0 -0 -1
vn 0 -0 -1
vn 0 -0 -1
vn 0 -0 -1
vn 0 -0 -1
vn 0 -0 -1
vn 0 -0 -1
vn 0 -0 -1
vn 0 -0 -1
vn 0 -0 -1
vn 0 -0 -1
vn 0 0 -1
vn 0 0 -1
vn 0 0 -1
vn 0 0 -1
vn 0 0 -1
vn 0 0 -1
vn 0 0 -1
vn 0 0 -1
g Default
usemtl Default
s off
f 2/6/1 3/12/2 4/11/3 1/5/4
f 6/16/5 7/20/6 8/19/7 5/15/8
f 10/22/9 11/36/10 12/35/11 9/21/12
f 14/38/13 15/44/14 16/43/15 13/37/16
f 18/2/17 19/8/18 20/7/19 17/1/20
f 22/10/21 23/28/22 24/27/23 21/9/24
f 26/30/25 27/40/26 28/39/27 25/29/28
f 30/4/29 31/14/30 32/13/31 29/3/32
f 34/18/33 35/24/34 36/23/35 33/17/36
f 38/26/37 39/32/38 40/31/39 37/25/40
f 42/34/41 43/42/42 44/41/43 41/33/44
f 48/11/45 47/12/46 46/6/47 45/5/48
f 52/19/49 51/20/50 50/16/51 49/15/52
f 56/35/53 55/36/54 54/22/55 53/21/56
f 60/43/57 59/44/58 58/38/59 57/37/60
f 64/7/61 63/8/62 62/2/63 61/1/64
f 68/27/65 67/28/66 66/10/67 65/9/68
f 72/39/69 71/40/70 70/30/71 69/29/72
f 76/13/73 75/14/74 74/4/75 73/3/76
f 80/23/77 79/24/78 78/18/79 77/17/80
f 84/31/81 83/32/82 82/26/83 81/25/84
f 88/41/85 87/42/86 86/34/87 85/33/88
f 92/19/89 91/20/90 90/16/91 89/15/92
f 96/19/93 95/20/94 94/16/95 93/15/96
f 100/19/97 99/20/98 98/16/99 97/15/100
f 104/19/101 103/20/102 102/16/103 101/15/104
f 106/16/105 107/20/106 108/19/107 105/15/108
f 110/16/109 111/20/110 112/19/111 109/15/112
f 114/16/113 115/20/114 116/19/115 113/15/116
f 118/16/117 119/20/118 120/19/119 117/15/120
f 122/16/121 123/20/122 124/19/123 121/15/124
f 128/19/125 127/20/126 126/16/127 125/15/128
f 132/19/129 131/20/130 130/16/131 129/15/132
f 136/19/133 135/20/134 134/16/135 133/15/136
f 140/19/137 139/20/138 138/16/139 137/15/140
f 144/19/141 143/20/142 142/16/143 141/15/144
f 148/19/145 147/20/146 146/16/147 145/15/148
f 150/16/149 151/20/150 152/19/151 149/15/152
f 154/38/153 155/44/154 156/43/155 153/37/156
