####
#
#	OBJ File Generated by LightWave3D
#	LightWave3D OBJ Export v2.3
#
####
o top_straight2.obj
mtllib top_straight2.mtl
g default
v 0.203853 0.460813 -0.977887
v 0.183764 0.424641 -1.01391
v 0.113674 0.504327 -1.01391
v 0.112353 0.552584 -0.977887
v -0.311417 0.504327 -1.01391
v -0.325886 0.552584 -0.977887
v 0.239908 0.308941 -0.977887
v 0.241135 0.277325 -1.01391
v 0.183838 0.247883 -1.01391
v 0.203929 0.278587 -0.977887
v -0.595431 0.210871 -1.01391
v -0.637927 0.234657 -0.977887
v -0.595431 0.0379163 -1.01391
v -0.637927 0.0389155 -0.977887
v -0.556071 0.000239035 -1.01391
v -0.597348 7.27204e-05 -0.977887
v 0.503992 0.198344 -0.977887
v 0.512229 0.155115 -1.01391
v 0.461145 0.123669 -1.01391
v 0.476342 0.165926 -0.977887
v 0.426548 0.277325 -1.01391
v 0.450298 0.308941 -0.977887
v 0.973577 0.198344 -0.978561
v 1.00999 0.155115 -1.01391
v -0.544843 0.329496 -0.686938
v -0.325886 0.554418 -0.686938
v -0.637927 0.234657 0.0072723
v -0.544843 0.329496 -0.516045
v 0.973577 0.198344 0.0072723
v 1.00999 0.155115 0.0072723
v 0.203853 0.460813 0.0072723
v 0.112353 0.552584 0.0072723
v 0.239908 0.308941 0.0072723
v 0.203929 0.278587 0.0072723
v 0.503992 0.198344 0.0072723
v 0.476342 0.165926 0.0072723
v 0.450298 0.308941 0.0072723
v -0.325886 0.553804 0.0072723
v -0.325886 0.554418 -0.516045
v -0.637927 0.0389155 0.0072723
v -0.597348 7.27204e-05 0.0072723
v -0.544858 0.416649 -0.686938
v -0.358714 0.605574 -0.686938
v -0.544858 0.416649 -0.516045
v -0.358714 0.605574 -0.516045
v 0.0580342 0.554418 -0.516045
v 0.0138505 0.605574 -0.516045
v 0.0138505 0.605574 -0.686938
v 0.0580342 0.554418 -0.686938
v 0.113674 0.504327 1.01391
v 0.183764 0.424641 1.01391
v 0.203853 0.460813 0.977887
v 0.112353 0.552584 0.977887
v -0.311417 0.504327 1.01391
v -0.325886 0.552584 0.977887
v 0.183838 0.247883 1.01391
v 0.241135 0.277325 1.01391
v 0.239908 0.308941 0.977887
v 0.203929 0.278587 0.977887
v -0.595431 0.210871 1.01391
v -0.637927 0.234657 0.977887
v -0.595431 0.0379163 1.01391
v -0.637927 0.0389155 0.977887
v -0.556071 0.000239035 1.01391
v -0.597348 7.27204e-05 0.977887
v 0.461145 0.123669 1.01391
v 0.512229 0.155115 1.01391
v 0.503992 0.198344 0.977887
v 0.476342 0.165926 0.977887
v 0.426548 0.277325 1.01391
v 0.450298 0.308941 0.977887
v 1.00999 0.155115 1.01391
v 0.973577 0.198344 0.978561
v -0.325886 0.554418 0.686938
v -0.544843 0.329496 0.686938
v -0.544843 0.329496 0.516045
v -0.325886 0.554418 0.516045
v -0.358714 0.605574 0.686938
v -0.544858 0.416649 0.686938
v -0.544858 0.416649 0.516045
v -0.358714 0.605574 0.516045
v 0.0138505 0.605574 0.516045
v 0.0580342 0.554418 0.516045
v 0.0138505 0.605574 0.686938
v 0.0580342 0.554418 0.686938
vt 0 0.731963
vt 0.001861 0.703267
vt 0.005822 0.726839
vt 0.008308 0.645514
vt 0.009659 0.704996
vt 0.009728 0.600554
vt 0.00973 0.625644
vt 0.015569 0.604844
vt 0.015886 0.64726
vt 0.01596 0.629691
vt 0.021515 0.782766
vt 0.027689 0.809679
vt 0.028654 0.818147
vt 0.028797 0.780351
vt 0.033998 0.806484
vt 0.035387 0.814013
vt 0.040161 0.891723
vt 0.041337 0.918571
vt 0.041807 0.91013
vt 0.042104 0.715928
vt 0.042583 0.88656
vt 0.043032 0.945048
vt 0.043577 0.953422
vt 0.04739 0.816983
vt 0.047462 0.705354
vt 0.048538 0.914442
vt 0.048946 0.894207
vt 0.049105 0.950102
vt 0.049303 0.943665
vt 0.049899 0.888191
vt 0.051107 0.712471
vt 0.053491 0.824448
vt 0.054132 0.70932
vt 0.056739 0.653218
vt 0.060364 0.660874
vt 0.062202 0.755109
vt 0.063152 0.74305
vt 0.078327 0.708016
vt 0.079004 0.660303
vt 0.082766 0.740731
vt 0.084508 0.65159
vt 0.087543 0.705364
vt 0.089908 0.749857
vt 0.156403 0.598267
vt 0.157746 0.622635
vt 0.158768 0.640005
vt 0.161509 0.697677
vt 0.163215 0.757047
vt 0.164272 0.784644
vt 0.164601 0.792469
vt 0.18469 0.818827
vt 0.184769 0.826634
vt 0.184934 0.951118
vt 0.18498 0.944647
vt 0.185071 0.915871
vt 0.185136 0.890174
vt 0.185144 0.895998
vt 0.234676 0.638171
vt 0.23589 0.739328
vt 0.237523 0.691155
vt 0.241395 0.645109
vt 0.242794 0.727142
vt 0.247029 0.690891
vt 0.259674 0.634733
vt 0.259852 0.730168
vt 0.261823 0.642959
vt 0.261828 0.741516
vt 0.269738 0.694859
vt 0.277819 0.695573
vt 0.278684 0.635567
vt 0.294868 0.798325
vt 0.295331 0.79059
vt 0.297025 0.582383
vt 0.297271 0.763779
vt 0.297942 0.647241
vt 0.298765 0.605846
vt 0.300681 0.62259
vt 0.302287 0.792643
vt 0.30253 0.577585
vt 0.302691 0.800734
vt 0.304594 0.601107
vt 0.304849 0.76557
vt 0.307025 0.644612
vt 0.307417 0.616146
vt 0.310394 0.710032
vt 0.317003 0.714342
vt 0.318519 0.822428
vt 0.323355 0.950432
vt 0.323399 0.944011
vt 0.324036 0.887701
vt 0.324244 0.814705
vt 0.324712 0.91436
vt 0.324821 0.893897
vt 0.32846 0.954817
vt 0.329784 0.945764
vt 0.330686 0.891241
vt 0.330967 0.909533
vt 0.33226 0.884624
vt 0.332346 0.918848
vt 0.334194 0.894008
vt 0.343409 0.660248
vt 0.349327 0.665603
vn 0.311017 0.946815 -0.082519
vn 0.94795 0.317049 -0.029519
vn 0.785291 0.214857 -0.580649
vn 0.785291 0.214857 -0.580649
vn 0.096091 0.597117 -0.796378
vn 0.311017 0.946815 -0.082519
vn -0.327739 0.928162 -0.176357
vn 0.311017 0.946815 -0.082519
vn 0.096091 0.597117 -0.796378
vn 0.096091 0.597117 -0.796378
vn -0.21837 0.527667 -0.820903
vn -0.327739 0.928162 -0.176357
vn 0.971433 0.235379 -0.030254
vn -0.12266 0.992058 -0.027846
vn -0.094117 0.775881 -0.62382
vn -0.094117 0.775881 -0.62382
vn 0.71737 0.279373 -0.638225
vn 0.971433 0.235379 -0.030254
vn 0.94795 0.317049 -0.029519
vn 0.971433 0.235379 -0.030254
vn 0.71737 0.279373 -0.638225
vn 0.71737 0.279373 -0.638225
vn 0.785291 0.214857 -0.580649
vn 0.94795 0.317049 -0.029519
vn -0.897589 0.436399 -0.06237
vn -0.327739 0.928162 -0.176357
vn -0.21837 0.527667 -0.820903
vn -0.21837 0.527667 -0.820903
vn -0.50815 0.30943 -0.803764
vn -0.897589 0.436399 -0.06237
vn -0.984595 -0.1709 -0.036953
vn -0.897589 0.436399 -0.06237
vn -0.50815 0.30943 -0.803764
vn -0.50815 0.30943 -0.803764
vn -0.64358 -0.120265 -0.755871
vn -0.984595 -0.1709 -0.036953
vn -0.691239 -0.722113 -0.027245
vn -0.984595 -0.1709 -0.036953
vn -0.64358 -0.120265 -0.755871
vn -0.64358 -0.120265 -0.755871
vn -0.5411 -0.565274 -0.622637
vn -0.691239 -0.722113 -0.027245
vn 0.896298 0.441707 -0.039309
vn -0.064863 0.996878 -0.045025
vn -0.037139 0.648207 -0.760558
vn -0.037139 0.648207 -0.760558
vn 0.525538 0.368453 -0.766846
vn 0.896298 0.441707 -0.039309
vn 0.517652 0.854642 -0.040282
vn 0.896298 0.441707 -0.039309
vn 0.525538 0.368453 -0.766846
vn 0.525538 0.368453 -0.766846
vn 0.385731 0.552304 -0.739034
vn 0.517652 0.854642 -0.040282
vn -0.12266 0.992058 -0.027846
vn 0.517652 0.854642 -0.040282
vn 0.385731 0.552304 -0.739034
vn 0.385731 0.552304 -0.739034
vn -0.094117 0.775881 -0.62382
vn -0.12266 0.992058 -0.027846
vn -0.064863 0.996878 -0.045025
vn 0.082283 0.995837 -0.039221
vn 0.597986 0.746626 -0.291481
vn 0.597986 0.746626 -0.291481
vn -0.037139 0.648207 -0.760558
vn -0.064863 0.996878 -0.045025
vn -0.327739 0.928162 -0.176357
vn -0.897589 0.436399 -0.06237
vn -0.762788 0.629007 -0.150012
vn -0.762788 0.629007 -0.150012
vn -0.342081 0.916904 -0.20559
vn -0.327739 0.928162 -0.176357
vn -0.737183 0.672779 0.062687
vn -0.762788 0.629007 -0.150012
vn -0.897589 0.436399 -0.06237
vn -0.897589 0.436399 -0.06237
vn -0.871928 0.489634 0
vn -0.737183 0.672779 0.062687
vn 0.597986 0.746626 -0.291481
vn 0.082283 0.995837 -0.039221
vn 0.086535 0.996249 0
vn 0.086535 0.996249 0
vn 0.764811 0.644255 0
vn 0.597986 0.746626 -0.291481
vn 0.25478 0.966999 -0
vn 0.94843 0.316986 0
vn 0.94795 0.317049 -0.029519
vn 0.94795 0.317049 -0.029519
vn 0.311017 0.946815 -0.082519
vn 0.25478 0.966999 -0
vn 0.972958 0.230981 0
vn -0.122276 0.992496 0
vn -0.12266 0.992058 -0.027846
vn -0.12266 0.992058 -0.027846
vn 0.971433 0.235379 -0.030254
vn 0.972958 0.230981 0
vn 0.94843 0.316986 0
vn 0.972958 0.230981 0
vn 0.971433 0.235379 -0.030254
vn 0.971433 0.235379 -0.030254
vn 0.94795 0.317049 -0.029519
vn 0.94843 0.316986 0
vn 0.899587 0.436741 0
vn -0.065037 0.997883 0
vn -0.064863 0.996878 -0.045025
vn -0.064863 0.996878 -0.045025
vn 0.896298 0.441707 -0.039309
vn 0.899587 0.436741 0
vn 0.517563 0.855645 0
vn 0.899587 0.436741 0
vn 0.896298 0.441707 -0.039309
vn 0.896298 0.441707 -0.039309
vn 0.517652 0.854642 -0.040282
vn 0.517563 0.855645 0
vn -0.122276 0.992496 0
vn 0.517563 0.855645 0
vn 0.517652 0.854642 -0.040282
vn 0.517652 0.854642 -0.040282
vn -0.12266 0.992058 -0.027846
vn -0.122276 0.992496 0
vn 0.082283 0.995837 -0.039221
vn -0.064863 0.996878 -0.045025
vn -0.065037 0.997883 0
vn -0.065037 0.997883 0
vn 0.086535 0.996249 0
vn 0.082283 0.995837 -0.039221
vn -0.737183 0.672779 0.062687
vn -0.871928 0.489634 0
vn -0.371663 0.928367 0.000997
vn -0.371663 0.928367 0.000997
vn -0.347283 0.93085 0.113637
vn -0.737183 0.672779 0.062687
vn -0.985367 -0.170447 0
vn -0.871928 0.489634 0
vn -0.897589 0.436399 -0.06237
vn -0.897589 0.436399 -0.06237
vn -0.984595 -0.1709 -0.036953
vn -0.985367 -0.170447 0
vn -0.691496 -0.722381 0
vn -0.985367 -0.170447 0
vn -0.984595 -0.1709 -0.036953
vn -0.984595 -0.1709 -0.036953
vn -0.691239 -0.722113 -0.027245
vn -0.691496 -0.722381 0
vn -0.762788 0.629007 -0.150012
vn -0.797374 0.537581 -0.274229
vn -0.299512 0.885748 -0.354602
vn -0.299512 0.885748 -0.354602
vn -0.342081 0.916904 -0.20559
vn -0.762788 0.629007 -0.150012
vn -0.737183 0.672779 0.062687
vn -0.786115 0.52999 0.318016
vn -0.797374 0.537581 -0.274229
vn -0.797374 0.537581 -0.274229
vn -0.762788 0.629007 -0.150012
vn -0.737183 0.672779 0.062687
vn -0.347283 0.93085 0.113637
vn -0.302803 0.895482 0.326224
vn -0.786115 0.52999 0.318016
vn -0.786115 0.52999 0.318016
vn -0.737183 0.672779 0.062687
vn -0.347283 0.93085 0.113637
vn -0.797374 0.537581 -0.274229
vn -0.786115 0.52999 0.318016
vn -0.302803 0.895482 0.326224
vn -0.302803 0.895482 0.326224
vn -0.299512 0.885748 -0.354602
vn -0.797374 0.537581 -0.274229
vn -0.347283 0.93085 0.113637
vn 0.039214 0.995825 0.08243
vn 0.117752 0.959288 0.256712
vn 0.117752 0.959288 0.256712
vn -0.302803 0.895482 0.326224
vn -0.347283 0.93085 0.113637
vn -0.302803 0.895482 0.326224
vn 0.117752 0.959288 0.256712
vn 0.117752 0.959288 -0.256712
vn 0.117752 0.959288 -0.256712
vn -0.299512 0.885748 -0.354602
vn -0.302803 0.895482 0.326224
vn -0.299512 0.885748 -0.354602
vn 0.117752 0.959288 -0.256712
vn 0.055531 0.992641 -0.107615
vn 0.055531 0.992641 -0.107615
vn -0.342081 0.916904 -0.20559
vn -0.299512 0.885748 -0.354602
vn 0.039214 0.995825 0.08243
vn 0.055531 0.992641 -0.107615
vn 0.117752 0.959288 -0.256712
vn 0.117752 0.959288 -0.256712
vn 0.117752 0.959288 0.256712
vn 0.039214 0.995825 0.08243
vn 0.055531 0.992641 -0.107615
vn 0.039214 0.995825 0.08243
vn 0.25478 0.966999 -0
vn 0.25478 0.966999 -0
vn 0.311017 0.946815 -0.082519
vn 0.055531 0.992641 -0.107615
vn 0.039214 0.995825 0.08243
vn -0.347283 0.93085 0.113637
vn -0.371663 0.928367 0.000997
vn -0.371663 0.928367 0.000997
vn 0.25478 0.966999 -0
vn 0.039214 0.995825 0.08243
vn -0.327739 0.928162 -0.176357
vn -0.342081 0.916904 -0.20559
vn 0.055531 0.992641 -0.107615
vn 0.055531 0.992641 -0.107615
vn 0.311017 0.946815 -0.082519
vn -0.327739 0.928162 -0.176357
vn 0.309409 0.946749 0.089065
vn 0.093621 0.597215 0.796599
vn 0.720478 0.245697 0.648494
vn 0.720478 0.245697 0.648494
vn 0.947995 0.316841 0.030303
vn 0.309409 0.946749 0.089065
vn -0.40709 0.898807 0.162556
vn -0.231379 0.536466 0.811583
vn 0.093621 0.597215 0.796599
vn 0.093621 0.597215 0.796599
vn 0.309409 0.946749 0.089065
vn -0.40709 0.898807 0.162556
vn 0.972498 0.230871 0.030776
vn 0.723283 0.271606 0.634895
vn -0.102266 0.745922 0.658135
vn -0.102266 0.745922 0.658135
vn -0.122216 0.99201 0.031305
vn 0.972498 0.230871 0.030776
vn 0.947995 0.316841 0.030303
vn 0.720478 0.245697 0.648494
vn 0.723283 0.271606 0.634895
vn 0.723283 0.271606 0.634895
vn 0.972498 0.230871 0.030776
vn 0.947995 0.316841 0.030303
vn -0.934125 0.347309 0.082385
vn -0.514339 0.29861 0.80392
vn -0.231379 0.536466 0.811583
vn -0.231379 0.536466 0.811583
vn -0.40709 0.898807 0.162556
vn -0.934125 0.347309 0.082385
vn -0.984522 -0.170301 0.041392
vn -0.643384 -0.123265 0.755555
vn -0.514339 0.29861 0.80392
vn -0.514339 0.29861 0.80392
vn -0.934125 0.347309 0.082385
vn -0.984522 -0.170301 0.041392
vn -0.691215 -0.722088 0.028463
vn -0.5411 -0.565274 0.622637
vn -0.643384 -0.123265 0.755555
vn -0.643384 -0.123265 0.755555
vn -0.984522 -0.170301 0.041392
vn -0.691215 -0.722088 0.028463
vn 0.898929 0.436421 0.038243
vn 0.577566 0.399278 0.712036
vn -0.039196 0.635271 0.771294
vn -0.039196 0.635271 0.771294
vn -0.065099 0.996936 0.043373
vn 0.898929 0.436421 0.038243
vn 0.517233 0.855101 0.035661
vn 0.35852 0.57162 0.738047
vn 0.577566 0.399278 0.712036
vn 0.577566 0.399278 0.712036
vn 0.898929 0.436421 0.038243
vn 0.517233 0.855101 0.035661
vn -0.122216 0.99201 0.031305
vn -0.102266 0.745922 0.658135
vn 0.35852 0.57162 0.738047
vn 0.35852 0.57162 0.738047
vn 0.517233 0.855101 0.035661
vn -0.122216 0.99201 0.031305
vn -0.065099 0.996936 0.043373
vn -0.039196 0.635271 0.771294
vn 0.601199 0.744284 0.290862
vn 0.601199 0.744284 0.290862
vn 0.082292 0.995813 0.039813
vn -0.065099 0.996936 0.043373
vn -0.40709 0.898807 0.162556
vn -0.342081 0.916904 0.205591
vn -0.753277 0.650227 0.098885
vn -0.753277 0.650227 0.098885
vn -0.934125 0.347309 0.082385
vn -0.40709 0.898807 0.162556
vn -0.740313 0.668332 -0.072596
vn -0.871928 0.489634 0
vn -0.934125 0.347309 0.082385
vn -0.934125 0.347309 0.082385
vn -0.753277 0.650227 0.098885
vn -0.740313 0.668332 -0.072596
vn 0.601199 0.744284 0.290862
vn 0.764811 0.644255 0
vn 0.086535 0.996249 0
vn 0.086535 0.996249 0
vn 0.082292 0.995813 0.039813
vn 0.601199 0.744284 0.290862
vn 0.25478 0.966999 -0
vn 0.309409 0.946749 0.089065
vn 0.947995 0.316841 0.030303
vn 0.947995 0.316841 0.030303
vn 0.94843 0.316986 0
vn 0.25478 0.966999 -0
vn 0.972958 0.230981 0
vn 0.972498 0.230871 0.030776
vn -0.122216 0.99201 0.031305
vn -0.122216 0.99201 0.031305
vn -0.122276 0.992496 0
vn 0.972958 0.230981 0
vn 0.94843 0.316986 0
vn 0.947995 0.316841 0.030303
vn 0.972498 0.230871 0.030776
vn 0.972498 0.230871 0.030776
vn 0.972958 0.230981 0
vn 0.94843 0.316986 0
vn 0.899587 0.436741 0
vn 0.898929 0.436421 0.038243
vn -0.065099 0.996936 0.043373
vn -0.065099 0.996936 0.043373
vn -0.065037 0.997883 0
vn 0.899587 0.436741 0
vn 0.517563 0.855645 0
vn 0.517233 0.855101 0.035661
vn 0.898929 0.436421 0.038243
vn 0.898929 0.436421 0.038243
vn 0.899587 0.436741 0
vn 0.517563 0.855645 0
vn -0.122276 0.992496 0
vn -0.122216 0.99201 0.031305
vn 0.517233 0.855101 0.035661
vn 0.517233 0.855101 0.035661
vn 0.517563 0.855645 0
vn -0.122276 0.992496 0
vn 0.082292 0.995813 0.039813
vn 0.086535 0.996249 0
vn -0.065037 0.997883 0
vn -0.065037 0.997883 0
vn -0.065099 0.996936 0.043373
vn 0.082292 0.995813 0.039813
vn -0.740313 0.668332 -0.072596
vn -0.347484 0.931387 -0.108509
vn -0.371663 0.928367 0.000997
vn -0.371663 0.928367 0.000997
vn -0.871928 0.489634 0
vn -0.740313 0.668332 -0.072596
vn -0.985367 -0.170447 0
vn -0.984522 -0.170301 0.041392
vn -0.934125 0.347309 0.082385
vn -0.934125 0.347309 0.082385
vn -0.871928 0.489634 0
vn -0.985367 -0.170447 0
vn -0.691496 -0.722381 0
vn -0.691215 -0.722088 0.028463
vn -0.984522 -0.170301 0.041392
vn -0.984522 -0.170301 0.041392
vn -0.985367 -0.170447 0
vn -0.691496 -0.722381 0
vn -0.753277 0.650227 0.098885
vn -0.342081 0.916904 0.205591
vn -0.302336 0.894101 0.330417
vn -0.302336 0.894101 0.330417
vn -0.797374 0.537581 0.274229
vn -0.753277 0.650227 0.098885
vn -0.740313 0.668332 -0.072596
vn -0.753277 0.650227 0.098885
vn -0.797374 0.537581 0.274229
vn -0.797374 0.537581 0.274229
vn -0.799205 0.538815 -0.266364
vn -0.740313 0.668332 -0.072596
vn -0.347484 0.931387 -0.108509
vn -0.740313 0.668332 -0.072596
vn -0.799205 0.538815 -0.266364
vn -0.799205 0.538815 -0.266364
vn -0.302803 0.895482 -0.326224
vn -0.347484 0.931387 -0.108509
vn -0.797374 0.537581 0.274229
vn -0.302336 0.894101 0.330417
vn -0.302803 0.895482 -0.326224
vn -0.302803 0.895482 -0.326224
vn -0.799205 0.538815 -0.266364
vn -0.797374 0.537581 0.274229
vn -0.347484 0.931387 -0.108509
vn -0.302803 0.895482 -0.326224
vn 0.117512 0.957338 -0.263998
vn 0.117512 0.957338 -0.263998
vn 0.042458 0.994743 -0.093189
vn -0.347484 0.931387 -0.108509
vn -0.302803 0.895482 -0.326224
vn -0.302336 0.894101 0.330417
vn 0.117752 0.959288 0.256712
vn 0.117752 0.959288 0.256712
vn 0.117512 0.957338 -0.263998
vn -0.302803 0.895482 -0.326224
vn -0.302336 0.894101 0.330417
vn -0.342081 0.916904 0.205591
vn 0.069466 0.985997 0.151603
vn 0.069466 0.985997 0.151603
vn 0.117752 0.959288 0.256712
vn -0.302336 0.894101 0.330417
vn 0.042458 0.994743 -0.093189
vn 0.117512 0.957338 -0.263998
vn 0.117752 0.959288 0.256712
vn 0.117752 0.959288 0.256712
vn 0.069466 0.985997 0.151603
vn 0.042458 0.994743 -0.093189
vn 0.069466 0.985997 0.151603
vn 0.309409 0.946749 0.089065
vn 0.25478 0.966999 -0
vn 0.25478 0.966999 -0
vn 0.042458 0.994743 -0.093189
vn 0.069466 0.985997 0.151603
vn 0.042458 0.994743 -0.093189
vn 0.25478 0.966999 -0
vn -0.371663 0.928367 0.000997
vn -0.371663 0.928367 0.000997
vn -0.347484 0.931387 -0.108509
vn 0.042458 0.994743 -0.093189
vn -0.40709 0.898807 0.162556
vn 0.309409 0.946749 0.089065
vn 0.069466 0.985997 0.151603
vn 0.069466 0.985997 0.151603
vn -0.342081 0.916904 0.205591
vn -0.40709 0.898807 0.162556
g DefaultMaterial
usemtl DefaultMaterial
s off
f 4/77/1 1/76/2 2/81/3
f 2/81/4 3/84/5 4/77/6
f 6/85/7 4/101/8 3/102/9
f 3/102/10 5/86/11 6/85/12
f 10/88/13 7/89/14 8/95/15
f 8/95/16 9/94/17 10/88/18
f 1/76/19 10/73/20 9/79/21
f 9/79/22 2/81/23 1/76/24
f 12/74/25 6/85/26 5/86/27
f 5/86/28 11/82/29 12/74/30
f 14/72/31 12/74/32 11/82/33
f 11/82/34 13/78/35 14/72/36
f 16/71/37 14/72/38 13/78/39
f 13/78/40 15/80/41 16/71/42
f 20/93/43 17/90/44 18/96/45
f 18/96/46 19/100/47 20/93/48
f 22/92/49 20/93/50 19/100/51
f 19/100/52 21/97/53 22/92/54
f 7/89/55 22/92/56 21/99/57
f 21/99/58 8/95/59 7/89/60
f 17/90/61 23/87/62 24/91/63
f 24/91/64 18/98/65 17/90/66
f 6/85/67 12/74/68 25/67/69
f 25/67/70 26/69/71 6/85/72
f 28/59/73 25/67/74 12/74/75
f 12/74/76 27/48/77 28/59/78
f 24/91/79 23/87/80 29/52/81
f 29/52/82 30/51/83 24/91/84
f 32/46/85 31/45/86 1/76/87
f 1/76/88 4/77/89 32/46/90
f 34/53/91 33/54/92 7/89/93
f 7/89/94 10/88/95 34/53/96
f 31/45/97 34/44/98 10/73/99
f 10/73/100 1/76/101 31/45/102
f 36/57/103 35/56/104 17/90/105
f 17/90/106 20/93/107 36/57/108
f 37/55/109 36/57/110 20/93/111
f 20/93/112 22/92/113 37/55/114
f 33/54/115 37/55/116 22/92/117
f 22/92/118 7/89/119 33/54/120
f 23/87/121 17/90/122 35/56/123
f 35/56/124 29/52/125 23/87/126
f 28/59/127 27/48/128 38/47/129
f 38/47/130 39/60/131 28/59/132
f 40/49/133 27/48/134 12/74/135
f 12/74/136 14/72/137 40/49/138
f 41/50/139 40/49/140 14/72/141
f 14/72/142 16/71/143 41/50/144
f 25/67/145 42/65/146 43/68/147
f 43/68/148 26/69/149 25/67/150
f 28/59/151 44/62/152 42/65/153
f 42/65/154 25/67/155 28/59/156
f 39/60/157 45/63/158 44/62/159
f 44/62/160 28/59/161 39/60/162
f 42/65/163 44/62/164 45/63/165
f 45/63/166 43/68/167 42/65/168
f 39/60/169 46/58/170 47/61/171
f 47/61/172 45/63/173 39/60/174
f 45/63/175 47/70/176 48/75/177
f 48/75/178 43/68/179 45/63/180
f 43/68/181 48/75/182 49/83/183
f 49/83/184 26/69/185 43/68/186
f 46/58/187 49/64/188 48/66/189
f 48/66/190 47/61/191 46/58/192
f 49/64/193 46/58/194 32/46/195
f 32/46/196 4/77/197 49/64/198
f 46/58/199 39/60/200 38/47/201
f 38/47/202 32/46/203 46/58/204
f 6/85/205 26/69/206 49/83/207
f 49/83/208 4/101/209 6/85/210
f 53/9/211 50/4/212 51/7/213
f 51/7/214 52/10/215 53/9/216
f 55/5/217 54/2/218 50/4/219
f 50/4/220 53/9/221 55/5/222
f 59/28/223 56/23/224 57/22/225
f 57/22/226 58/29/227 59/28/228
f 52/10/229 51/7/230 56/6/231
f 56/6/232 59/8/233 52/10/234
f 61/14/235 60/11/236 54/1/237
f 54/1/238 55/3/239 61/14/240
f 63/15/241 62/12/242 60/11/243
f 60/11/244 61/14/245 63/15/246
f 65/16/247 64/13/248 62/12/249
f 62/12/250 63/15/251 65/16/252
f 69/27/253 66/17/254 67/21/255
f 67/21/256 68/30/257 69/27/258
f 71/26/259 70/19/260 66/17/261
f 66/17/262 69/27/263 71/26/264
f 58/29/265 57/22/266 70/18/267
f 70/18/268 71/26/269 58/29/270
f 68/30/271 67/21/272 72/24/273
f 72/24/274 73/32/275 68/30/276
f 55/3/277 74/20/278 75/36/279
f 75/36/280 61/14/281 55/3/282
f 76/43/283 27/48/284 61/14/285
f 61/14/286 75/36/287 76/43/288
f 72/24/289 30/51/290 29/52/291
f 29/52/292 73/32/293 72/24/294
f 32/46/295 53/9/296 52/10/297
f 52/10/298 31/45/299 32/46/300
f 34/53/301 59/28/302 58/29/303
f 58/29/304 33/54/305 34/53/306
f 31/45/307 52/10/308 59/8/309
f 59/8/310 34/44/311 31/45/312
f 36/57/313 69/27/314 68/30/315
f 68/30/316 35/56/317 36/57/318
f 37/55/319 71/26/320 69/27/321
f 69/27/322 36/57/323 37/55/324
f 33/54/325 58/29/326 71/26/327
f 71/26/328 37/55/329 33/54/330
f 73/32/331 29/52/332 35/56/333
f 35/56/334 68/30/335 73/32/336
f 76/43/337 77/42/338 38/47/339
f 38/47/340 27/48/341 76/43/342
f 40/49/343 63/15/344 61/14/345
f 61/14/346 27/48/347 40/49/348
f 41/50/349 65/16/350 63/15/351
f 63/15/352 40/49/353 41/50/354
f 75/36/355 74/20/356 78/31/357
f 78/31/358 79/37/359 75/36/360
f 76/43/361 75/36/362 79/37/363
f 79/37/364 80/40/365 76/43/366
f 77/42/367 76/43/368 80/40/369
f 80/40/370 81/38/371 77/42/372
f 79/37/373 78/31/374 81/38/375
f 81/38/376 80/40/377 79/37/378
f 77/42/379 81/38/380 82/39/381
f 82/39/382 83/41/383 77/42/384
f 81/38/385 78/33/386 84/35/387
f 84/35/388 82/39/389 81/38/390
f 78/33/391 74/25/392 85/34/393
f 85/34/394 84/35/395 78/33/396
f 83/41/397 82/39/398 84/35/399
f 84/35/400 85/34/401 83/41/402
f 85/34/403 53/9/404 32/46/405
f 32/46/406 83/41/407 85/34/408
f 83/41/409 32/46/410 38/47/411
f 38/47/412 77/42/413 83/41/414
f 55/5/415 53/9/416 85/34/417
f 85/34/418 74/25/419 55/5/420
